<svg width="146" height="144" viewBox="0 0 146 144" fill="none" xmlns="http://www.w3.org/2000/svg">
  <path d="M107.062 26.0625C105.938 24.1875 103.125 22.5 100.875 22.3125C101.438 21.375 101.812 19.875 101.812 18.75C101.812 17.8125 101.438 16.125 100.875 15.1875C99.1875 12.1875 95.625 10.6875 92.25 11.4375C92.25 8.25001 90.1875 5.43751 86.8125 4.50001C86.25 4.12501 85.125 3.93751 84.375 3.93751C82.875 3.93751 80.625 4.68751 79.5 5.62501C79.5 5.43751 79.5 5.43751 79.3125 5.25001C78 1.31251 73.5 -0.749988 69.375 0.375012C67.3125 1.12501 64.875 3.37501 64.3125 5.62501C63 4.68751 60.9375 3.93751 59.4375 3.93751C58.6875 3.93751 57.5625 4.12501 57 4.50001C53.625 5.43751 51.5625 8.25001 51.5625 11.4375C48.1875 10.6875 44.625 12.1875 42.9375 15.1875C42.375 16.125 42 17.8125 42 18.75C42 19.875 42.375 21.375 42.9375 22.3125C40.5 22.5 38.0625 23.8125 36.75 26.0625C36 27.375 35.8125 28.6875 36 30H107.812C108 28.6875 107.812 27.375 107.062 26.0625ZM92.625 36L87.375 84H78.9375L83.0625 36H60.9375L64.875 84H56.4375L51.1875 36H36L44.0625 90.9375C44.625 93.75 47.25 96 50.0625 96H93.75C96.5625 96 99.1875 93.75 99.75 90.9375L108 36H92.625Z" fill="#F8F9FA"/>
  <path d="M21.0059 143L20.9739 128.152L13.6139 140.44H11.7579L4.39787 128.344V143H0.429871V120.6H3.85387L12.7499 135.448L21.4859 120.6H24.9099L24.9419 143H21.0059Z" fill="#DDE3E8"/>
  <path d="M38.2884 143.224C36.5604 143.224 35.003 142.851 33.6164 142.104C32.2297 141.357 31.1417 140.323 30.3524 139C29.5844 137.656 29.2004 136.141 29.2004 134.456C29.2004 132.771 29.5844 131.267 30.3524 129.944C31.1417 128.621 32.2297 127.587 33.6164 126.84C35.003 126.093 36.5604 125.72 38.2884 125.72C40.0377 125.72 41.6057 126.093 42.9924 126.84C44.379 127.587 45.4564 128.621 46.2244 129.944C47.0137 131.267 47.4084 132.771 47.4084 134.456C47.4084 136.141 47.0137 137.656 46.2244 139C45.4564 140.323 44.379 141.357 42.9924 142.104C41.6057 142.851 40.0377 143.224 38.2884 143.224ZM38.2884 139.8C39.7604 139.8 40.9764 139.309 41.9364 138.328C42.8964 137.347 43.3764 136.056 43.3764 134.456C43.3764 132.856 42.8964 131.565 41.9364 130.584C40.9764 129.603 39.7604 129.112 38.2884 129.112C36.8164 129.112 35.6004 129.603 34.6404 130.584C33.7017 131.565 33.2324 132.856 33.2324 134.456C33.2324 136.056 33.7017 137.347 34.6404 138.328C35.6004 139.309 36.8164 139.8 38.2884 139.8Z" fill="#DDE3E8"/>
  <path d="M66.7646 125.912L59.4366 143H55.3086L47.9806 125.912H52.1406L57.4526 138.584L62.9246 125.912H66.7646Z" fill="#DDE3E8"/>
  <path d="M69.2646 125.912H73.2646V143H69.2646V125.912ZM71.2806 123.096C70.5553 123.096 69.9473 122.872 69.4566 122.424C68.966 121.955 68.7206 121.379 68.7206 120.696C68.7206 120.013 68.966 119.448 69.4566 119C69.9473 118.531 70.5553 118.296 71.2806 118.296C72.006 118.296 72.6139 118.52 73.1046 118.968C73.5953 119.395 73.8406 119.939 73.8406 120.6C73.8406 121.304 73.5953 121.901 73.1046 122.392C72.6353 122.861 72.0273 123.096 71.2806 123.096Z" fill="#DDE3E8"/>
  <path d="M94.5786 134.552C94.5786 134.829 94.5573 135.224 94.5146 135.736H81.1066C81.3413 136.995 81.9493 137.997 82.9306 138.744C83.9333 139.469 85.1706 139.832 86.6426 139.832C88.52 139.832 90.0666 139.213 91.2826 137.976L93.4266 140.44C92.6586 141.357 91.688 142.051 90.5146 142.52C89.3413 142.989 88.0186 143.224 86.5466 143.224C84.6693 143.224 83.016 142.851 81.5866 142.104C80.1573 141.357 79.048 140.323 78.2586 139C77.4906 137.656 77.1066 136.141 77.1066 134.456C77.1066 132.792 77.4799 131.299 78.2266 129.976C78.9946 128.632 80.0506 127.587 81.3946 126.84C82.7386 126.093 84.2533 125.72 85.9386 125.72C87.6026 125.72 89.0853 126.093 90.3866 126.84C91.7093 127.565 92.7333 128.6 93.4586 129.944C94.2053 131.267 94.5786 132.803 94.5786 134.552ZM85.9386 128.92C84.6586 128.92 83.5706 129.304 82.6746 130.072C81.7999 130.819 81.2666 131.821 81.0746 133.08H90.7706C90.6 131.843 90.0773 130.84 89.2026 130.072C88.3279 129.304 87.24 128.92 85.9386 128.92Z" fill="#DDE3E8"/>
  <path d="M98.8049 120.6H108.597C110.986 120.6 113.109 121.069 114.965 122.008C116.821 122.925 118.261 124.237 119.285 125.944C120.309 127.629 120.821 129.581 120.821 131.8C120.821 134.019 120.309 135.981 119.285 137.688C118.261 139.373 116.821 140.685 114.965 141.624C113.109 142.541 110.986 143 108.597 143H98.8049V120.6ZM108.405 139.48C110.048 139.48 111.488 139.171 112.725 138.552C113.984 137.912 114.944 137.016 115.605 135.864C116.288 134.691 116.629 133.336 116.629 131.8C116.629 130.264 116.288 128.92 115.605 127.768C114.944 126.595 113.984 125.699 112.725 125.08C111.488 124.44 110.048 124.12 108.405 124.12H102.965V139.48H108.405Z" fill="#DDE3E8"/>
  <path d="M141.114 131.352C142.352 131.757 143.333 132.44 144.058 133.4C144.784 134.339 145.146 135.512 145.146 136.92C145.146 138.861 144.4 140.365 142.906 141.432C141.413 142.477 139.237 143 136.378 143H125.242V120.6H135.738C138.384 120.6 140.421 121.123 141.85 122.168C143.28 123.192 143.994 124.611 143.994 126.424C143.994 127.533 143.738 128.515 143.226 129.368C142.714 130.221 142.01 130.883 141.114 131.352ZM129.402 123.864V130.04H135.29C136.741 130.04 137.85 129.784 138.618 129.272C139.408 128.739 139.802 127.971 139.802 126.968C139.802 125.944 139.408 125.176 138.618 124.664C137.85 124.131 136.741 123.864 135.29 123.864H129.402ZM136.122 139.736C139.344 139.736 140.954 138.659 140.954 136.504C140.954 134.349 139.344 133.272 136.122 133.272H129.402V139.736H136.122Z" fill="#DDE3E8"/>
</svg>